<svg width="38" height="38" viewBox="0 0 38 38" fill="none" xmlns="http://www.w3.org/2000/svg">
<path fill-rule="evenodd" clip-rule="evenodd" d="M19 3.375C14.15 3.375 9.81253 5.58438 6.9469 9.05625C6.81894 9.22211 6.65894 9.36054 6.4764 9.46331C6.29387 9.56609 6.09254 9.63111 5.88437 9.65452C5.6762 9.67792 5.46545 9.65923 5.26466 9.59955C5.06386 9.53987 4.87711 9.44043 4.71552 9.30713C4.55392 9.17383 4.42078 9.0094 4.32401 8.82361C4.22724 8.63782 4.16882 8.43447 4.15221 8.22566C4.13561 8.01684 4.16116 7.80681 4.22735 7.60806C4.29355 7.40932 4.39903 7.22591 4.53752 7.06875C6.82562 4.29852 9.86124 2.24379 13.2833 1.14892C16.7055 0.0540639 20.37 -0.0348427 23.8412 0.892779C27.3124 1.8204 30.4441 3.72551 32.8638 6.38152C35.2836 9.03753 36.8895 12.3327 37.4907 15.875H34.3125C33.591 12.3463 31.6731 9.17498 28.8829 6.89733C26.0928 4.61968 22.6018 3.37544 19 3.375ZM3.68752 22.125C4.27912 25.0145 5.67612 27.6776 7.71714 29.8067C9.75816 31.9358 12.3599 33.444 15.2218 34.1571C18.0837 34.8702 21.0889 34.7591 23.8903 33.8366C26.6917 32.9141 29.175 31.2178 31.0532 28.9438C31.1811 28.7779 31.3411 28.6395 31.5236 28.5367C31.7062 28.4339 31.9075 28.3689 32.1157 28.3455C32.3238 28.3221 32.5346 28.3408 32.7354 28.4005C32.9362 28.4601 33.1229 28.5596 33.2845 28.6929C33.4461 28.8262 33.5793 28.9906 33.676 29.1764C33.7728 29.3622 33.8312 29.5655 33.8478 29.7743C33.8644 29.9832 33.8389 30.1932 33.7727 30.3919C33.7065 30.5907 33.601 30.7741 33.4625 30.9313C31.1744 33.7015 28.1388 35.7562 24.7167 36.8511C21.2946 37.9459 17.63 38.0348 14.1589 37.1072C10.6877 36.1796 7.55598 34.2745 5.13624 31.6185C2.7165 28.9625 1.11055 25.6673 0.509399 22.125H3.68752Z" fill="#4EA00B"/>
</svg>
